<?xml version="1.0" encoding="UTF-8"?>
<!DOCTYPE svg PUBLIC "-//W3C//DTD SVG 1.1//EN" "http://www.w3.org/Graphics/SVG/1.1/DTD/svg11.dtd">
<svg xmlns="http://www.w3.org/2000/svg" version="1.1" width="482px" height="659px" style="shape-rendering:geometricPrecision; text-rendering:geometricPrecision; image-rendering:optimizeQuality; fill-rule:evenodd; clip-rule:evenodd" xmlns:xlink="http://www.w3.org/1999/xlink">
<g><path style="opacity:1" fill="#fefefe" d="M -0.5,-0.5 C 160.167,-0.5 320.833,-0.5 481.5,-0.5C 481.5,219.167 481.5,438.833 481.5,658.5C 320.833,658.5 160.167,658.5 -0.5,658.5C -0.5,438.833 -0.5,219.167 -0.5,-0.5 Z"/></g>
<g><path style="opacity:1" fill="#6e98e2" d="M 227.5,31.5 C 289.542,28.0934 335.376,53.4268 365,107.5C 372.44,123.045 376.44,139.378 377,156.5C 364.5,167.667 352,178.833 339.5,190C 338.5,190.667 337.5,190.667 336.5,190C 326.333,181.167 316.167,172.333 306,163.5C 300.591,125.592 278.758,105.592 240.5,103.5C 210.141,106.351 190.308,122.351 181,151.5C 169.949,141.445 158.616,131.779 147,122.5C 133.716,133.447 120.716,144.781 108,156.5C 112.484,107.696 135.984,71.196 178.5,47C 194.043,38.8722 210.377,33.7055 227.5,31.5 Z"/></g>
<g><path style="opacity:1" fill="#ffda05" d="M 233.5,118.5 C 262.465,116.382 281.298,129.049 290,156.5C 293.032,186.968 279.865,206.135 250.5,214C 220.094,216.05 201.594,202.217 195,172.5C 193.855,144.434 206.689,126.434 233.5,118.5 Z"/></g>
<g><path style="opacity:1" fill="#335ebd" d="M 276.5,438.5 C 275.559,440.05 274.893,441.716 274.5,443.5C 273.463,444.93 272.796,446.597 272.5,448.5C 271.596,449.209 271.263,450.209 271.5,451.5C 270.662,451.842 270.328,452.508 270.5,453.5C 269.069,454.78 268.402,456.447 268.5,458.5C 267.326,459.514 266.66,460.847 266.5,462.5C 258.443,480.962 250.61,499.629 243,518.5C 234.859,500.557 227.026,482.557 219.5,464.5C 219.065,461.843 218.065,459.509 216.5,457.5C 216.737,456.209 216.404,455.209 215.5,454.5C 215.34,452.847 214.674,451.514 213.5,450.5C 213.737,449.209 213.404,448.209 212.5,447.5C 212.204,445.597 211.537,443.93 210.5,442.5C 210.34,440.847 209.674,439.514 208.5,438.5C 178.831,365.667 148.664,293 118,220.5C 113.106,207.923 109.939,194.923 108.5,181.5C 108.833,179.5 109.167,177.5 109.5,175.5C 121.737,164.143 134.237,153.143 147,142.5C 157.948,151.111 168.615,160.111 179,169.5C 183.521,201.352 201.354,221.185 232.5,229C 268.664,231.472 292.498,215.639 304,181.5C 315.222,191.523 326.722,201.19 338.5,210.5C 351.482,199.353 364.315,188.019 377,176.5C 376.921,184.577 375.921,192.577 374,200.5C 371.534,208.231 368.867,215.897 366,223.5C 335.673,294.988 305.839,366.655 276.5,438.5 Z"/></g>
<g><path style="opacity:1" fill="#76c431" d="M 208.5,438.5 C 209.674,439.514 210.34,440.847 210.5,442.5C 210.5,443.5 210.5,444.5 210.5,445.5C 178.178,447.662 147.845,456.495 119.5,472C 108.256,478.7 99.0894,487.534 92,498.5C 84.1819,513.537 84.8486,528.204 94,542.5C 106.307,557.463 121.474,568.629 139.5,576C 202.039,598.881 265.372,601.214 329.5,583C 349.745,577.049 367.745,567.215 383.5,553.5C 402.656,534.333 404.489,513.666 389,491.5C 375.273,477.377 359.106,466.877 340.5,460C 320.416,452.683 299.749,447.85 278.5,445.5C 276.667,445.415 275.334,444.748 274.5,443.5C 274.893,441.716 275.559,440.05 276.5,438.5C 313.589,441.268 348.256,451.768 380.5,470C 390.957,476.79 399.79,485.29 407,495.5C 418.332,515.494 416.332,534.16 401,551.5C 381.364,570.408 358.197,583.241 331.5,590C 282.359,602.623 232.693,604.956 182.5,597C 154.216,592.463 127.883,582.796 103.5,568C 93.9182,561.629 85.7515,553.795 79,544.5C 66.0903,520.377 69.9236,499.21 90.5,481C 109.766,465.533 131.432,454.533 155.5,448C 172.87,443.114 190.537,439.948 208.5,438.5 Z"/></g>
<g><path style="opacity:1" fill="#7fc83f" d="M 210.5,442.5 C 211.537,443.93 212.204,445.597 212.5,447.5C 211.666,448.748 210.333,449.415 208.5,449.5C 177.235,452.311 148.235,461.811 121.5,478C 88.7493,502.471 87.416,528.471 117.5,556C 140.808,571.812 166.475,581.812 194.5,586C 245.149,594.748 294.483,590.081 342.5,572C 359.27,565.213 373.103,554.713 384,540.5C 393.59,523.585 392.257,507.585 380,492.5C 363.871,476.344 344.705,465.178 322.5,459C 305.953,454.259 289.287,450.759 272.5,448.5C 272.796,446.597 273.463,444.93 274.5,443.5C 275.334,444.748 276.667,445.415 278.5,445.5C 299.749,447.85 320.416,452.683 340.5,460C 359.106,466.877 375.273,477.377 389,491.5C 404.489,513.666 402.656,534.333 383.5,553.5C 367.745,567.215 349.745,577.049 329.5,583C 265.372,601.214 202.039,598.881 139.5,576C 121.474,568.629 106.307,557.463 94,542.5C 84.8486,528.204 84.1819,513.537 92,498.5C 99.0894,487.534 108.256,478.7 119.5,472C 147.845,456.495 178.178,447.662 210.5,445.5C 210.5,444.5 210.5,443.5 210.5,442.5 Z"/></g>
<g><path style="opacity:1" fill="#85cb47" d="M 212.5,447.5 C 213.404,448.209 213.737,449.209 213.5,450.5C 183.393,453.367 155.06,462.201 128.5,477C 120.372,482.794 113.205,489.627 107,497.5C 98.7457,510.633 98.4123,523.966 106,537.5C 112.926,547.761 121.76,555.927 132.5,562C 167.456,579.926 204.623,588.426 244,587.5C 282.581,588.385 319.081,580.218 353.5,563C 363.535,557.302 372.035,549.802 379,540.5C 390.169,518.997 386.336,500.497 367.5,485C 346.616,469.565 323.283,459.565 297.5,455C 288.916,453.177 280.249,452.01 271.5,451.5C 271.263,450.209 271.596,449.209 272.5,448.5C 289.287,450.759 305.953,454.259 322.5,459C 344.705,465.178 363.871,476.344 380,492.5C 392.257,507.585 393.59,523.585 384,540.5C 373.103,554.713 359.27,565.213 342.5,572C 294.483,590.081 245.149,594.748 194.5,586C 166.475,581.812 140.808,571.812 117.5,556C 87.416,528.471 88.7493,502.471 121.5,478C 148.235,461.811 177.235,452.311 208.5,449.5C 210.333,449.415 211.666,448.748 212.5,447.5 Z"/></g>
<g><path style="opacity:1" fill="#8bcd50" d="M 213.5,450.5 C 214.674,451.514 215.34,452.847 215.5,454.5C 190.452,457.265 166.452,464.099 143.5,475C 129.667,482.167 119.167,492.667 112,506.5C 108.282,519.41 110.616,531.076 119,541.5C 134.334,556.755 152.501,567.255 173.5,573C 220.5,585.667 267.5,585.667 314.5,573C 330.061,568.385 344.395,561.385 357.5,552C 382.021,531.003 382.688,509.337 359.5,487C 346.063,476.447 331.063,468.781 314.5,464C 301.063,460.079 287.396,457.246 273.5,455.5C 271.97,455.36 270.97,454.693 270.5,453.5C 270.328,452.508 270.662,451.842 271.5,451.5C 280.249,452.01 288.916,453.177 297.5,455C 323.283,459.565 346.616,469.565 367.5,485C 386.336,500.497 390.169,518.997 379,540.5C 372.035,549.802 363.535,557.302 353.5,563C 319.081,580.218 282.581,588.385 244,587.5C 204.623,588.426 167.456,579.926 132.5,562C 121.76,555.927 112.926,547.761 106,537.5C 98.4123,523.966 98.7457,510.633 107,497.5C 113.205,489.627 120.372,482.794 128.5,477C 155.06,462.201 183.393,453.367 213.5,450.5 Z"/></g>
<g><path style="opacity:1" fill="#93d15c" d="M 270.5,453.5 C 270.97,454.693 271.97,455.36 273.5,455.5C 287.396,457.246 301.063,460.079 314.5,464C 331.063,468.781 346.063,476.447 359.5,487C 382.688,509.337 382.021,531.003 357.5,552C 344.395,561.385 330.061,568.385 314.5,573C 267.5,585.667 220.5,585.667 173.5,573C 152.501,567.255 134.334,556.755 119,541.5C 110.616,531.076 108.282,519.41 112,506.5C 119.167,492.667 129.667,482.167 143.5,475C 166.452,464.099 190.452,457.265 215.5,454.5C 216.404,455.209 216.737,456.209 216.5,457.5C 216.03,458.693 215.03,459.36 213.5,459.5C 185.832,461.909 160.499,470.742 137.5,486C 112.452,509.451 113.785,531.451 141.5,552C 167.08,566.982 194.747,575.316 224.5,577C 259.257,579.948 292.923,575.281 325.5,563C 338.33,557.505 349.496,549.672 359,539.5C 369.275,524.613 368.942,509.946 358,495.5C 345.652,483.238 331.152,474.405 314.5,469C 299.302,464.308 283.969,460.808 268.5,458.5C 268.402,456.447 269.069,454.78 270.5,453.5 Z"/></g>
<g><path style="opacity:1" fill="#9cd56a" d="M 216.5,457.5 C 218.065,459.509 219.065,461.843 219.5,464.5C 192.988,465.251 167.988,471.751 144.5,484C 139.981,487.522 135.815,491.355 132,495.5C 128.599,500.81 127.765,506.477 129.5,512.5C 129.029,524.724 133.363,534.891 142.5,543C 157.784,555.216 175.118,563.216 194.5,567C 234.735,575.854 274.402,573.854 313.5,561C 328.38,555.824 340.88,547.324 351,535.5C 355.929,527.873 357.762,519.54 356.5,510.5C 357.406,501.143 354.073,493.643 346.5,488C 335.761,480.8 324.094,475.466 311.5,472C 297.831,468.583 283.998,466.083 270,464.5C 268.319,464.392 267.152,463.725 266.5,462.5C 266.66,460.847 267.326,459.514 268.5,458.5C 283.969,460.808 299.302,464.308 314.5,469C 331.152,474.405 345.652,483.238 358,495.5C 368.942,509.946 369.275,524.613 359,539.5C 349.496,549.672 338.33,557.505 325.5,563C 292.923,575.281 259.257,579.948 224.5,577C 194.747,575.316 167.08,566.982 141.5,552C 113.785,531.451 112.452,509.451 137.5,486C 160.499,470.742 185.832,461.909 213.5,459.5C 215.03,459.36 216.03,458.693 216.5,457.5 Z"/></g>
<g><path style="opacity:1" fill="#fefefe" d="M 266.5,462.5 C 267.152,463.725 268.319,464.392 270,464.5C 283.998,466.083 297.831,468.583 311.5,472C 324.094,475.466 335.761,480.8 346.5,488C 354.073,493.643 357.406,501.143 356.5,510.5C 354.393,515.956 351.059,520.623 346.5,524.5C 338.391,529.888 329.724,534.221 320.5,537.5C 294.367,545.993 267.533,549.66 240,548.5C 215.241,549.142 191.074,545.809 167.5,538.5C 157.824,535.495 148.824,531.161 140.5,525.5C 135.736,522.072 132.07,517.738 129.5,512.5C 127.765,506.477 128.599,500.81 132,495.5C 135.815,491.355 139.981,487.522 144.5,484C 167.988,471.751 192.988,465.251 219.5,464.5C 227.026,482.557 234.859,500.557 243,518.5C 250.61,499.629 258.443,480.962 266.5,462.5 Z"/></g>
<g><path style="opacity:1" fill="#a4d875" d="M 356.5,510.5 C 357.762,519.54 355.929,527.873 351,535.5C 340.88,547.324 328.38,555.824 313.5,561C 274.402,573.854 234.735,575.854 194.5,567C 175.118,563.216 157.784,555.216 142.5,543C 133.363,534.891 129.029,524.724 129.5,512.5C 132.07,517.738 135.736,522.072 140.5,525.5C 142.359,531.544 145.693,536.71 150.5,541C 166.23,552.918 183.896,560.584 203.5,564C 240.236,570.824 276.236,568.158 311.5,556C 324.729,550.824 335.562,542.658 344,531.5C 345.411,529.35 346.245,527.016 346.5,524.5C 351.059,520.623 354.393,515.956 356.5,510.5 Z"/></g>
<g><path style="opacity:1" fill="#afdd86" d="M 346.5,524.5 C 346.245,527.016 345.411,529.35 344,531.5C 335.562,542.658 324.729,550.824 311.5,556C 276.236,568.158 240.236,570.824 203.5,564C 183.896,560.584 166.23,552.918 150.5,541C 145.693,536.71 142.359,531.544 140.5,525.5C 148.824,531.161 157.824,535.495 167.5,538.5C 175.704,545.105 185.038,549.939 195.5,553C 226.743,561.289 258.076,561.622 289.5,554C 300.284,550.941 310.284,546.274 319.5,540C 320.252,539.329 320.586,538.496 320.5,537.5C 329.724,534.221 338.391,529.888 346.5,524.5 Z"/></g>
<g><path style="opacity:1" fill="#bbe299" d="M 320.5,537.5 C 320.586,538.496 320.252,539.329 319.5,540C 310.284,546.274 300.284,550.941 289.5,554C 258.076,561.622 226.743,561.289 195.5,553C 185.038,549.939 175.704,545.105 167.5,538.5C 191.074,545.809 215.241,549.142 240,548.5C 267.533,549.66 294.367,545.993 320.5,537.5 Z"/></g>
</svg>
